<svg width="24" height="24" viewBox="0 0 24 24" xmlns="http://www.w3.org/2000/svg">
	<path fill="currentColor" d="M12 1.5c-1.38 0-2.5 1.12-2.5 2.5 0 .9.48 1.69 1.2 2.13-.6.36-1.08.9-1.36 1.54H8.2a2 2 0 1 0 0 1.5h1.05c.05.5.2.96.43 1.38L8.5 13.2a2.5 2.5 0 1 0 1.1 1.02l1.15-1.6c.38.18.8.28 1.25.28s.87-.1 1.25-.28l1.15 1.6a2.5 2.5 0 1 0 1.1-1.02l-1.18-1.65c.23-.42.38-.88.43-1.38h1.05a2 2 0 1 0 0-1.5h-1.14c-.28-.64-.76-1.18-1.36-1.54.72-.44 1.2-1.23 1.2-2.13 0-1.38-1.12-2.5-2.5-2.5zm0 1.5a1 1 0 1 1 0 2 1 1 0 0 1 0-2zm0 4.5a1.75 1.75 0 1 1 0 3.5 1.75 1.75 0 0 1 0-3.5zM6.5 8a.5.5 0 1 1 0 1 .5.5 0 0 1 0-1zm11 0a.5.5 0 1 1 0 1 .5.5 0 0 1 0-1zM8 14.75a1 1 0 1 1 0 2 1 1 0 0 1 0-2zm8 0a1 1 0 1 1 0 2 1 1 0 0 1 0-2z"/>
</svg>
